<svg xmlns="http://www.w3.org/2000/svg" width="1100" height="280" viewBox="0 0 1100 280" role="img" aria-label="generated-file-limit"><title>generated-file-limit</title><defs><marker id="a" viewBox="0 0 10 10" refX="10" refY="5" markerUnits="userSpaceOnUse" markerWidth="10" markerHeight="10" orient="auto-start-reverse"><path d="M0 0L10 5L0 10z" fill="#888888" /></marker><marker id="a-grey" viewBox="0 0 10 10" refX="10" refY="5" markerUnits="userSpaceOnUse" markerWidth="10" markerHeight="10" orient="auto-start-reverse"><path d="M0 0L10 5L0 10z" fill="#888888" /></marker></defs><g font-family="Arial, Liberation Sans, sans-serif"><rect x="20" y="60" width="245" height="100" rx="5" fill="#f6f6f6" stroke="#cccccc" stroke-width="1.5" /><text dominant-baseline="central" x="142.5" y="94.0" font-size="25" text-anchor="middle" font-weight="700" fill="#303030">ClickHouse query</text><text dominant-baseline="central" x="142.5" y="126.0" font-size="22" text-anchor="middle" font-weight="400" fill="#666666">Column metadata</text><rect x="360" y="90" width="175" height="100" rx="5" fill="#ffffff" stroke="#cccccc" stroke-width="1.5" /><rect x="369" y="80" width="175" height="100" rx="5" fill="#ffffff" stroke="#cccccc" stroke-width="1.5" /><rect x="378" y="70" width="175" height="100" rx="5" fill="#ffffff" stroke="#cccccc" stroke-width="1.5" /><rect x="387" y="60" width="175" height="100" rx="5" fill="#ffffff" stroke="#cccccc" stroke-width="1.5" /><text x="485" y="238" font-size="24" text-anchor="middle" font-weight="400" fill="#303030">Bot Management features</text><path d="M275.0,110.0 L345.0,110.0" fill="none" stroke="#888888" stroke-width="2" marker-end="url(#a-grey)" /><path d="M585.0,110.0 L715.0,110.0" fill="none" stroke="#888888" stroke-width="2" marker-end="url(#a-grey)" /><rect x="737" y="52" width="22" height="155" rx="5" fill="#f6f6f6" stroke="#cccccc" stroke-width="1.5" /><text x="749" y="29" font-size="24" text-anchor="middle" font-weight="400" fill="#303030">200-feature limit</text><rect x="815" y="60" width="265" height="100" rx="5" fill="#f6f6f6" stroke="#cccccc" stroke-width="1.5" /><text dominant-baseline="central" x="947.5" y="94.0" font-size="25" text-anchor="middle" font-weight="700" fill="#303030">FL2 proxy</text><text dominant-baseline="central" x="947.5" y="126.0" font-size="22" text-anchor="middle" font-weight="400" fill="#666666">Panic → HTTP 5xx</text></g></svg>