<svg xmlns="http://www.w3.org/2000/svg" width="1100" height="285" viewBox="0 0 1100 285" role="img" aria-label="incident-scope"><title>incident-scope</title><defs><marker id="a" viewBox="0 0 10 10" refX="10" refY="5" markerUnits="userSpaceOnUse" markerWidth="10" markerHeight="10" orient="auto-start-reverse"><path d="M0 0L10 5L0 10z" fill="#888888" /></marker><marker id="a-grey" viewBox="0 0 10 10" refX="10" refY="5" markerUnits="userSpaceOnUse" markerWidth="10" markerHeight="10" orient="auto-start-reverse"><path d="M0 0L10 5L0 10z" fill="#888888" /></marker></defs><g font-family="Arial, Liberation Sans, sans-serif"><text x="600" y="32" font-size="25" text-anchor="middle" font-weight="700" fill="#303030">IPv4</text><text x="920" y="32" font-size="25" text-anchor="middle" font-weight="700" fill="#303030">IPv6</text><text x="50" y="117" font-size="29" text-anchor="start" font-weight="700" fill="#303030">Lagoon</text><rect x="450" y="65" width="300" height="90" rx="5" fill="#f6f6f6" stroke="#cccccc" stroke-width="1.5" /><text x="600" y="121" font-size="27" text-anchor="middle" font-weight="700" fill="#303030">FAIL</text><path d="M470,141 L730,141" fill="none" stroke="#888888" stroke-width="3" stroke-dasharray="7 6" /><rect x="770" y="65" width="300" height="90" rx="5" fill="#f6f6f6" stroke="#cccccc" stroke-width="1.5" /><text x="920" y="121" font-size="27" text-anchor="middle" font-weight="700" fill="#303030">PASS</text><path d="M790,141 L1050,141" fill="none" stroke="#888888" stroke-width="3" /><text x="50" y="227" font-size="29" text-anchor="start" font-weight="700" fill="#303030">Pacific</text><rect x="450" y="175" width="300" height="90" rx="5" fill="#f6f6f6" stroke="#cccccc" stroke-width="1.5" /><text x="600" y="231" font-size="27" text-anchor="middle" font-weight="700" fill="#303030">PASS</text><path d="M470,251 L730,251" fill="none" stroke="#888888" stroke-width="3" /><rect x="770" y="175" width="300" height="90" rx="5" fill="#f6f6f6" stroke="#cccccc" stroke-width="1.5" /><text x="920" y="231" font-size="27" text-anchor="middle" font-weight="700" fill="#303030">PASS</text><path d="M790,251 L1050,251" fill="none" stroke="#888888" stroke-width="3" /></g></svg>