<svg xmlns="http://www.w3.org/2000/svg" width="1100" height="260" viewBox="0 0 1100 260" role="img" aria-label="request-network"><title>request-network</title><defs><marker id="a" viewBox="0 0 10 10" refX="10" refY="5" markerUnits="userSpaceOnUse" markerWidth="10" markerHeight="10" orient="auto-start-reverse"><path d="M0 0L10 5L0 10z" fill="#888888" /></marker><marker id="a-grey" viewBox="0 0 10 10" refX="10" refY="5" markerUnits="userSpaceOnUse" markerWidth="10" markerHeight="10" orient="auto-start-reverse"><path d="M0 0L10 5L0 10z" fill="#888888" /></marker></defs><g font-family="Arial, Liberation Sans, sans-serif"><path d="M140.0,104.0 L343.0,104.0" fill="none" stroke="#888888" stroke-width="2" marker-end="url(#a-grey)" /><path d="M456.0,104.0 L658.0,104.0" fill="none" stroke="#888888" stroke-width="2" marker-end="url(#a-grey)" /><path d="M774.0,104.0 L966.0,104.0" fill="none" stroke="#888888" stroke-width="2" marker-end="url(#a-grey)" /><rect x="37" y="71" width="96" height="62" rx="5" fill="#ffffff" stroke="#cccccc" stroke-width="1.5" /><path d="M85,133 L85,149" fill="none" stroke="#888888" stroke-width="2" /><path d="M58,149 L112,149" fill="none" stroke="#888888" stroke-width="2" /><text x="85" y="188" font-size="25" text-anchor="middle" font-weight="700" fill="#303030">Client</text><rect x="353" y="73" width="94" height="64" rx="12" fill="#ffffff" stroke="#cccccc" stroke-width="1.5" /><path d="M400,105 L373,90" fill="none" stroke="#888888" stroke-width="2" marker-end="url(#a-grey)" /><path d="M400,105 L427,120" fill="none" stroke="#888888" stroke-width="2" marker-end="url(#a-grey)" /><path d="M400,105 L373,120" fill="none" stroke="#888888" stroke-width="2" marker-end="url(#a-grey)" /><path d="M400,105 L427,90" fill="none" stroke="#888888" stroke-width="2" marker-end="url(#a-grey)" /><text x="400" y="188" font-size="25" text-anchor="middle" font-weight="700" fill="#303030">Access</text><rect x="669" y="73" width="94" height="64" rx="12" fill="#ffffff" stroke="#cccccc" stroke-width="1.5" /><path d="M716,105 L689,90" fill="none" stroke="#888888" stroke-width="2" marker-end="url(#a-grey)" /><path d="M716,105 L743,120" fill="none" stroke="#888888" stroke-width="2" marker-end="url(#a-grey)" /><path d="M716,105 L689,120" fill="none" stroke="#888888" stroke-width="2" marker-end="url(#a-grey)" /><path d="M716,105 L743,90" fill="none" stroke="#888888" stroke-width="2" marker-end="url(#a-grey)" /><text x="716" y="188" font-size="25" text-anchor="middle" font-weight="700" fill="#303030">Transit</text><rect x="976" y="75" width="88" height="21" rx="5" fill="#f6f6f6" stroke="#cccccc" stroke-width="1.5" /><circle cx="990" cy="85" r="2" fill="#888888" stroke="#cccccc" stroke-width="2" /><rect x="976" y="101" width="88" height="21" rx="5" fill="#f6f6f6" stroke="#cccccc" stroke-width="1.5" /><circle cx="990" cy="111" r="2" fill="#888888" stroke="#cccccc" stroke-width="2" /><rect x="976" y="127" width="88" height="21" rx="5" fill="#f6f6f6" stroke="#cccccc" stroke-width="1.5" /><circle cx="990" cy="137" r="2" fill="#888888" stroke="#cccccc" stroke-width="2" /><text x="1020" y="188" font-size="25" text-anchor="middle" font-weight="700" fill="#303030">Service</text><text x="550" y="35" font-size="25" text-anchor="middle" font-weight="400" fill="#303030">One request crosses several independently operated links.</text></g></svg>