<svg xmlns="http://www.w3.org/2000/svg" width="1100" height="320" viewBox="0 0 1100 320" role="img" aria-label="Synthetic schedules; highlighted fault from 4.5 to 9.5 seconds"><title>Synthetic schedules; highlighted fault from 4.5 to 9.5 seconds</title><defs><marker id="a" viewBox="0 0 10 10" refX="10" refY="5" markerUnits="userSpaceOnUse" markerWidth="10" markerHeight="10" orient="auto-start-reverse"><path d="M0 0L10 5L0 10z" fill="#888888" /></marker><marker id="a-grey" viewBox="0 0 10 10" refX="10" refY="5" markerUnits="userSpaceOnUse" markerWidth="10" markerHeight="10" orient="auto-start-reverse"><path d="M0 0L10 5L0 10z" fill="#888888" /></marker></defs><g font-family="Arial, Liberation Sans, sans-serif"><text x="5" y="72" font-size="25" text-anchor="start" font-weight="400" fill="#303030">Every 5 s</text><path d="M290,65 L1070,65" fill="none" stroke="#888888" stroke-width="2" /><rect x="344.0" y="42" width="60" height="46" rx="0" fill="#f6f6f6" stroke="#cccccc" stroke-width="1.5" /><circle cx="290" cy="65" r="5" fill="#888888" stroke="#cccccc" stroke-width="2" /><circle cx="350" cy="65" r="5" fill="#888888" stroke="#cccccc" stroke-width="2" /><circle cx="410" cy="65" r="5" fill="#888888" stroke="#cccccc" stroke-width="2" /><circle cx="470" cy="65" r="5" fill="#888888" stroke="#cccccc" stroke-width="2" /><circle cx="530" cy="65" r="5" fill="#888888" stroke="#cccccc" stroke-width="2" /><circle cx="590" cy="65" r="5" fill="#888888" stroke="#cccccc" stroke-width="2" /><circle cx="650" cy="65" r="5" fill="#888888" stroke="#cccccc" stroke-width="2" /><circle cx="710" cy="65" r="5" fill="#888888" stroke="#cccccc" stroke-width="2" /><circle cx="770" cy="65" r="5" fill="#888888" stroke="#cccccc" stroke-width="2" /><circle cx="830" cy="65" r="5" fill="#888888" stroke="#cccccc" stroke-width="2" /><circle cx="890" cy="65" r="5" fill="#888888" stroke="#cccccc" stroke-width="2" /><circle cx="950" cy="65" r="5" fill="#888888" stroke="#cccccc" stroke-width="2" /><text x="5" y="192" font-size="25" text-anchor="start" font-weight="400" fill="#303030">Alternating 4 / 6 s</text><path d="M290,185 L1070,185" fill="none" stroke="#888888" stroke-width="2" /><rect x="344.0" y="162" width="60" height="46" rx="0" fill="#f6f6f6" stroke="#cccccc" stroke-width="1.5" /><circle cx="290" cy="185" r="5" fill="#888888" stroke="#cccccc" stroke-width="2" /><circle cx="338" cy="185" r="5" fill="#888888" stroke="#cccccc" stroke-width="2" /><circle cx="410" cy="185" r="5" fill="#888888" stroke="#cccccc" stroke-width="2" /><circle cx="458" cy="185" r="5" fill="#888888" stroke="#cccccc" stroke-width="2" /><circle cx="530" cy="185" r="5" fill="#888888" stroke="#cccccc" stroke-width="2" /><circle cx="578" cy="185" r="5" fill="#888888" stroke="#cccccc" stroke-width="2" /><circle cx="650" cy="185" r="5" fill="#888888" stroke="#cccccc" stroke-width="2" /><circle cx="698" cy="185" r="5" fill="#888888" stroke="#cccccc" stroke-width="2" /><circle cx="770" cy="185" r="5" fill="#888888" stroke="#cccccc" stroke-width="2" /><circle cx="818" cy="185" r="5" fill="#888888" stroke="#cccccc" stroke-width="2" /><circle cx="890" cy="185" r="5" fill="#888888" stroke="#cccccc" stroke-width="2" /><circle cx="938" cy="185" r="5" fill="#888888" stroke="#cccccc" stroke-width="2" /><text x="290" y="243" font-size="21" text-anchor="middle" font-weight="400" fill="#303030">0</text><text x="410" y="243" font-size="21" text-anchor="middle" font-weight="400" fill="#303030">10</text><text x="530" y="243" font-size="21" text-anchor="middle" font-weight="400" fill="#303030">20</text><text x="650" y="243" font-size="21" text-anchor="middle" font-weight="400" fill="#303030">30</text><text x="770" y="243" font-size="21" text-anchor="middle" font-weight="400" fill="#303030">40</text><text x="890" y="243" font-size="21" text-anchor="middle" font-weight="400" fill="#303030">50</text><text x="1010" y="243" font-size="21" text-anchor="middle" font-weight="400" fill="#303030">60</text><text x="550" y="295" font-size="23" text-anchor="middle" font-weight="400" fill="#303030">Twelve probes per minute. A five-second fault can fit between probes.</text></g></svg>